<svg width="472" height="147" viewBox="0 0 472 147" fill="none" xmlns="http://www.w3.org/2000/svg">
<g clip-path="url(#clip0_1_80)">
<path d="M396.3 80.7L472 33.5V46.3L396.3 93.7L320.5 46.3V33.5L396.3 80.7Z" fill="url(#paint0_linear_1_80)"/>
<path d="M396.3 21.5C379.2 21.5 364.2 30.1 355.6 43.4C356.3 42.7 356.7 42.3 357.4 41.8C378.7 24.1 409.4 28.1 426.1 50.4L437.2 43.3C428.4 30.4 413.3 21.5 396.3 21.5Z" fill="url(#paint1_linear_1_80)"/>
<path d="M396.3 43.4C387 43.4 378.8 48.1 373.9 54.9C377.9 52 382.5 50.5 387.4 50.5C395.6 50.5 402.9 54.7 407.8 61.8L418.4 55.2C413.8 47.9 405.6 43.4 396.3 43.4Z" fill="url(#paint2_linear_1_80)"/>
<path d="M345.1 24.2C376.3 -0.399988 420.4 6.3 443.9 39L444.1 39.2L455.6 32.1C443 12.8 421.1 0 396.3 0C371.7 0 349.8 12.6 337 32.1C339.3 29.5 342.2 26.4 345.1 24.2Z" fill="url(#paint3_linear_1_80)"/>
<path d="M197.2 49.9V144.9H205.6L211.1 136.9C215.1 141.8 221.7 146.4 231.5 146.4C244.6 146.4 255.6 138.4 255.6 120.7V99C255.6 81.3 244.5 73.3 230.8 73.3C221.3 73.3 214.9 77.5 211.5 81.7V49.8L197.2 49.9ZM227.3 132.9C218.2 132.9 211.6 128.5 211.8 118.9V99.6C211.8 92.1 217.8 86.3 227.5 86.3C234.4 86.3 241.2 91.4 241.2 99.6V119.3C241.2 128 234.2 132.9 227.3 132.9Z" fill="#2D2D2D"/>
<path d="M141.8 49.9V81.8C138.5 77.6 132.1 73.4 122.5 73.4C108.8 73.4 97.7 81.4 97.7 99.1V120.8C97.7 138.5 108.8 146.5 121.8 146.5C131.5 146.5 138.2 141.8 142.2 137L147.7 145H156.1V50H141.8V49.9ZM112.1 119.6V99.9C112.1 91.7 119 86.6 125.8 86.6C135.5 86.6 141.5 92.1 141.5 99.9V119.2C141.7 128.7 135.1 133.2 126 133.2C119.2 132.9 112.1 128 112.1 119.6Z" fill="#2D2D2D"/>
<path d="M265.6 49.9H280.4V144.9H265.6V49.9Z" fill="#2D2D2D"/>
<path d="M184.3 74.7H169.5V144.9H184.3V74.7Z" fill="#2D2D2D"/>
<path d="M177 66.2C181.639 66.2 185.4 62.4392 185.4 57.8C185.4 53.1608 181.639 49.4 177 49.4C172.361 49.4 168.6 53.1608 168.6 57.8C168.6 62.4392 172.361 66.2 177 66.2Z" fill="#2D2D2D"/>
<path d="M84.7 74.7H69.9V144.9H84.7V74.7Z" fill="url(#paint4_linear_1_80)"/>
<path d="M77.4 66.2C82.0392 66.2 85.8 62.4392 85.8 57.8C85.8 53.1608 82.0392 49.4 77.4 49.4C72.7608 49.4 69 53.1608 69 57.8C69 62.4392 72.7608 66.2 77.4 66.2Z" fill="url(#paint5_linear_1_80)"/>
<path d="M321.2 132.9C311 132.9 306.1 127.6 306.1 120.3V114.5H349.9V98.8C349.9 82.6 338.6 73.1 321.1 73.1C302.9 73.1 291.2 83.3 291.2 99.2V120.9C291.2 137.1 302.9 146.6 321.1 146.6C334.6 146.6 344.6 141.1 348.6 131.8L338 125.2C334.3 130.3 328.9 132.9 321.2 132.9ZM306.1 99C306.1 91.7 311.2 86.6 320.7 86.6C330.2 86.6 335.3 91.7 335.3 99V103.4H306.3L306.1 99Z" fill="#2D2D2D"/>
<path d="M30.8 73.1C16.4 73.1 7.1 78.9 3.6 87.5L15.1 94.6C20 86.8 24.6 86.4 30.8 86.4C39.9 86.4 43.9 90.6 43.9 97.5V103H31.4C22.3 103 7.62939e-06 106.1 7.62939e-06 125.4C7.62939e-06 139.1 10.4 146 23 146C33 146 40.3 141.3 44.5 136.5L50.3 144.5H58.9V96.4C58.7 83.1 49.4 73.1 30.8 73.1ZM43.8 122.5C43.6 123.6 43.6 124.9 42.2 126.7C40 129.8 34.2 132.9 27.6 132.9C20.5 132.9 15.4 130 15.4 124.3C15.4 115.9 28.9 114.1 37.5 113.7H43.9L43.8 122.5Z" fill="url(#paint6_linear_1_80)"/>
</g>
<defs>
<linearGradient id="paint0_linear_1_80" x1="320.5" y1="63.6" x2="472" y2="63.6" gradientUnits="userSpaceOnUse">
<stop stop-color="#A739FB"/>
<stop offset="1" stop-color="#8819DC"/>
</linearGradient>
<linearGradient id="paint1_linear_1_80" x1="355.6" y1="35.95" x2="437.2" y2="35.95" gradientUnits="userSpaceOnUse">
<stop stop-color="#A739FB"/>
<stop offset="1" stop-color="#8819DC"/>
</linearGradient>
<linearGradient id="paint2_linear_1_80" x1="373.9" y1="52.6" x2="418.4" y2="52.6" gradientUnits="userSpaceOnUse">
<stop stop-color="#A739FB"/>
<stop offset="1" stop-color="#8819DC"/>
</linearGradient>
<linearGradient id="paint3_linear_1_80" x1="337" y1="19.6" x2="455.6" y2="19.6" gradientUnits="userSpaceOnUse">
<stop stop-color="#A739FB"/>
<stop offset="1" stop-color="#8819DC"/>
</linearGradient>
<linearGradient id="paint4_linear_1_80" x1="76.0667" y1="72.9359" x2="76.0667" y2="144.238" gradientUnits="userSpaceOnUse">
<stop stop-color="#A739FB"/>
<stop offset="1" stop-color="#8819DC"/>
</linearGradient>
<linearGradient id="paint5_linear_1_80" x1="76" y1="48.9778" x2="76" y2="66.0417" gradientUnits="userSpaceOnUse">
<stop stop-color="#A739FB"/>
<stop offset="1" stop-color="#8819DC"/>
</linearGradient>
<linearGradient id="paint6_linear_1_80" x1="29" y1="73" x2="29" y2="148.5" gradientUnits="userSpaceOnUse">
<stop stop-color="#A739FB"/>
<stop offset="1" stop-color="#8819DC"/>
</linearGradient>
<clipPath id="clip0_1_80">
<rect width="472" height="147" fill="white"/>
</clipPath>
</defs>
</svg>
