<svg width="165" height="165" viewBox="0 0 165 165" fill="none" xmlns="http://www.w3.org/2000/svg">
<path d="M82.5 144.375L81.8118 143.343C77.0364 136.18 74.6488 132.598 71.4938 130.005C68.7009 127.709 65.4827 125.987 62.0236 124.937C58.1161 123.75 53.8114 123.75 45.2019 123.75H35.75C28.0492 123.75 24.1989 123.75 21.2576 122.251C18.6704 120.933 16.5669 118.83 15.2487 116.243C13.75 113.301 13.75 109.451 13.75 101.75V42.625C13.75 34.9242 13.75 31.0739 15.2487 28.1326C16.5669 25.5454 18.6704 23.4419 21.2576 22.1237C24.1989 20.625 28.0492 20.625 35.75 20.625H38.5C53.9014 20.625 61.6021 20.625 67.4847 23.6223C72.6591 26.2589 76.8659 30.4658 79.5025 35.6403C82.5 41.5228 82.5 49.2236 82.5 64.625M82.5 144.375V64.625M82.5 144.375L83.1882 143.343C87.9636 136.18 90.3512 132.598 93.5062 130.005C96.2988 127.709 99.517 125.987 102.977 124.937C106.884 123.75 111.189 123.75 119.798 123.75H129.25C136.951 123.75 140.801 123.75 143.743 122.251C146.33 120.933 148.433 118.83 149.751 116.243C151.25 113.301 151.25 109.451 151.25 101.75V42.625C151.25 34.9242 151.25 31.0739 149.751 28.1326C148.433 25.5454 146.33 23.4419 143.743 22.1237C140.801 20.625 136.951 20.625 129.25 20.625H126.5C111.099 20.625 103.398 20.625 97.515 23.6223C92.3409 26.2589 88.1341 30.4658 85.4975 35.6403C82.5 41.5228 82.5 49.2236 82.5 64.625" stroke="black" stroke-width="13.75" stroke-linecap="round" stroke-linejoin="round"/>
<path d="M82.5 144.375L81.8118 143.343C77.0364 136.18 74.6488 132.598 71.4938 130.005C68.7009 127.709 65.4827 125.987 62.0236 124.937C58.1161 123.75 53.8114 123.75 45.2019 123.75H35.75C28.0492 123.75 24.1989 123.75 21.2576 122.251C18.6704 120.933 16.5669 118.83 15.2487 116.243C13.75 113.301 13.75 109.451 13.75 101.75V42.625C13.75 34.9242 13.75 31.0739 15.2487 28.1326C16.5669 25.5454 18.6704 23.4419 21.2576 22.1237C24.1989 20.625 28.0492 20.625 35.75 20.625H38.5C53.9014 20.625 61.6021 20.625 67.4847 23.6223C72.6591 26.2589 76.8659 30.4658 79.5025 35.6403C82.5 41.5228 82.5 49.2236 82.5 64.625M82.5 144.375V64.625M82.5 144.375L83.1882 143.343C87.9636 136.18 90.3512 132.598 93.5062 130.005C96.2988 127.709 99.517 125.987 102.977 124.937C106.884 123.75 111.189 123.75 119.798 123.75H129.25C136.951 123.75 140.801 123.75 143.743 122.251C146.33 120.933 148.433 118.83 149.751 116.243C151.25 113.301 151.25 109.451 151.25 101.75V42.625C151.25 34.9242 151.25 31.0739 149.751 28.1326C148.433 25.5454 146.33 23.4419 143.743 22.1237C140.801 20.625 136.951 20.625 129.25 20.625H126.5C111.099 20.625 103.398 20.625 97.515 23.6223C92.3409 26.2589 88.1341 30.4658 85.4975 35.6403C82.5 41.5228 82.5 49.2236 82.5 64.625" stroke="url(#paint0_linear_6_2)" stroke-width="13.75" stroke-linecap="round" stroke-linejoin="round"/>
<defs>
<linearGradient id="paint0_linear_6_2" x1="13.75" y1="82.5" x2="151.25" y2="82.5" gradientUnits="userSpaceOnUse">
<stop stop-color="#A739FB"/>
<stop offset="1" stop-color="#8819DC"/>
</linearGradient>
</defs>
</svg>
