<svg width="294" height="294" viewBox="0 0 294 294" fill="none" xmlns="http://www.w3.org/2000/svg">
<path d="M257.245 36.75L183.745 110.25M183.745 36.75L257.245 110.25M125.276 169.823C110.557 155.103 98.9343 138.459 90.4084 120.702C89.675 119.175 89.3083 118.411 89.0266 117.444C88.0255 114.01 88.7446 109.793 90.8272 106.884C91.4133 106.066 92.1135 105.366 93.5138 103.966C97.7964 99.6828 99.9378 97.5415 101.338 95.3882C106.617 87.2678 106.617 76.7992 101.338 68.6788C99.9378 66.5255 97.7964 64.3842 93.5138 60.1014L91.1266 57.7143C84.6165 51.2041 81.3613 47.9491 77.8654 46.1809C70.9128 42.6643 62.7021 42.6643 55.7495 46.1809C52.2536 47.9491 48.9984 51.2041 42.4882 57.7143L40.5573 59.6454C34.0693 66.1332 30.8254 69.3771 28.3478 73.7876C25.5987 78.6815 23.622 86.2825 23.6388 91.8958C23.6537 96.9543 24.6351 100.412 26.5976 107.326C37.1445 144.485 57.0443 179.549 86.297 208.801C115.55 238.054 150.614 257.954 187.773 268.502C194.687 270.464 198.145 271.445 203.203 271.46C208.816 271.477 216.417 269.5 221.311 266.751C225.722 264.273 228.966 261.029 235.454 254.542L237.384 252.611C243.895 246.1 247.15 242.845 248.917 239.349C252.434 232.397 252.434 224.186 248.917 217.233C247.15 213.738 243.895 210.482 237.384 203.972L234.998 201.585C230.715 197.302 228.574 195.161 226.42 193.761C218.3 188.481 207.831 188.481 199.71 193.761C197.557 195.161 195.416 197.302 191.133 201.585C189.733 202.985 189.033 203.686 188.214 204.271C185.306 206.355 181.089 207.074 177.654 206.072C176.688 205.79 175.925 205.424 174.397 204.69C156.639 196.164 139.995 184.541 125.276 169.823Z" stroke="black" stroke-width="24.5" stroke-linecap="round" stroke-linejoin="round"/>
</svg>
