<svg width="294" height="294" viewBox="0 0 294 294" fill="none" xmlns="http://www.w3.org/2000/svg">
<path d="M147 98L98 147M98 147L147 196M98 147H196M95.55 257.25H198.45C219.032 257.25 229.322 257.25 237.184 253.244C244.1 249.721 249.721 244.1 253.244 237.184C257.25 229.322 257.25 219.032 257.25 198.45V95.55C257.25 74.968 257.25 64.6771 253.244 56.8159C249.721 49.9009 244.1 44.2789 237.184 40.7555C229.322 36.75 219.032 36.75 198.45 36.75H95.55C74.968 36.75 64.6771 36.75 56.8159 40.7555C49.9009 44.2789 44.2789 49.9009 40.7555 56.8159C36.75 64.6771 36.75 74.968 36.75 95.55V198.45C36.75 219.032 36.75 229.322 40.7555 237.184C44.2789 244.1 49.9009 249.721 56.8159 253.244C64.6771 257.25 74.968 257.25 95.55 257.25Z" stroke="black" stroke-width="16" stroke-linecap="round" stroke-linejoin="round"/>
</svg>
