<svg width="294" height="294" viewBox="0 0 294 294" fill="none" xmlns="http://www.w3.org/2000/svg">
<path d="M220.25 24.9167L227.792 40.0011C231.034 46.4834 232.654 49.7246 234.819 52.5333C236.74 55.0256 238.974 57.2599 241.467 59.1811C244.275 61.346 247.516 62.9666 253.999 66.2078L269.083 73.75L253.999 81.2922C247.516 84.5334 244.275 86.154 241.467 88.319C238.974 90.2402 236.74 92.4744 234.819 94.9668C232.654 97.7754 231.034 101.017 227.792 107.499L220.25 122.583L212.708 107.499C209.466 101.017 207.846 97.7754 205.681 94.9668C203.76 92.4744 201.526 90.2402 199.033 88.319C196.225 86.154 192.984 84.5334 186.501 81.2922L171.417 73.75L186.501 66.2078C192.984 62.9666 196.225 61.346 199.033 59.1811C201.526 57.2599 203.76 55.0256 205.681 52.5333C207.846 49.7246 209.466 46.4834 212.708 40.0011L220.25 24.9167Z" stroke="black" stroke-width="24.4167" stroke-linecap="round" stroke-linejoin="round"/>
<path d="M256.875 163.961C240.87 192.037 210.66 210.966 176.03 210.966C124.672 210.966 83.0376 169.331 83.0376 117.973C83.0376 83.3401 101.97 53.1294 130.049 37.125C71.0617 42.7179 24.9167 92.3912 24.9167 152.842C24.9167 217.04 76.9599 269.083 141.158 269.083C201.607 269.083 251.278 222.943 256.875 163.961Z" stroke="black" stroke-width="24.4167" stroke-linecap="round" stroke-linejoin="round"/>
</svg>
