<svg width="293" height="294" viewBox="0 0 293 294" fill="none" xmlns="http://www.w3.org/2000/svg">
<path d="M102.309 108.585C110.806 126.282 122.39 142.869 137.058 157.538C151.728 172.208 168.315 183.791 186.012 192.288C187.535 193.018 188.295 193.384 189.258 193.665C192.682 194.663 196.884 193.946 199.782 191.871C200.599 191.286 201.296 190.589 202.691 189.193C206.959 184.924 209.093 182.79 211.24 181.396C219.332 176.134 229.766 176.134 237.859 181.396C240.005 182.79 242.139 184.924 246.407 189.193L248.785 191.571C255.274 198.06 258.518 201.304 260.279 204.788C263.784 211.716 263.784 219.9 260.279 226.829C258.518 230.312 255.274 233.557 248.785 240.045L246.861 241.969C240.395 248.435 237.163 251.668 232.766 254.137C227.889 256.876 220.314 258.847 214.72 258.83C209.679 258.815 206.233 257.837 199.343 255.881C162.31 245.37 127.365 225.539 98.2118 196.385C69.0586 167.232 49.2265 132.287 38.7155 95.2542C36.7596 88.3632 35.7816 84.9178 35.7667 79.8764C35.75 74.2823 37.7199 66.7071 40.4597 61.8298C42.9289 57.4344 46.1617 54.2015 52.6276 47.7356L54.552 45.8112C61.04 39.3232 64.2842 36.0791 67.7682 34.317C74.6971 30.8123 82.8799 30.8123 89.8089 34.317C93.2929 36.0791 96.537 39.3232 103.025 45.8112L105.404 48.1903C109.672 52.4583 111.806 54.5924 113.201 56.7383C118.463 64.8312 118.463 75.2642 113.201 83.357C111.806 85.5028 109.672 87.637 105.404 91.905C104.008 93.3007 103.311 93.9984 102.727 94.814C100.651 97.7126 99.9344 101.915 100.932 105.338C101.213 106.301 101.578 107.062 102.309 108.585Z" stroke="black" stroke-width="24.4167" stroke-linecap="round" stroke-linejoin="round"/>
</svg>
