<svg width="293" height="293" viewBox="0 0 293 293" fill="none" xmlns="http://www.w3.org/2000/svg">
<path d="M256.37 97.6667V36.625M256.37 36.625H195.328M256.37 36.625L183.12 109.875M124.85 169.245C110.181 154.576 98.5978 137.988 90.101 120.292C89.37 118.769 89.0046 118.008 88.7239 117.045C87.7262 113.622 88.4428 109.42 90.5184 106.521C91.1024 105.705 91.8002 105.007 93.1958 103.612C97.4638 99.3437 99.5979 97.2097 100.993 95.0637C106.255 86.9709 106.255 76.5379 100.993 68.4452C99.5979 66.2992 97.4638 64.1652 93.1958 59.897L90.8167 57.518C84.3287 51.03 81.0846 47.786 77.6006 46.0238C70.6716 42.5192 62.4889 42.5192 55.5599 46.0238C52.0759 47.786 48.8318 51.03 42.3438 57.518L40.4194 59.4425C33.9535 65.9083 30.7206 69.1412 28.2515 73.5366C25.5117 78.4139 23.5417 85.989 23.5585 91.5833C23.5733 96.6246 24.5514 100.07 26.5073 106.961C37.0183 143.994 56.8503 178.939 86.0036 208.091C115.157 237.245 150.101 257.077 187.134 267.588C194.025 269.544 197.471 270.522 202.512 270.537C208.106 270.554 215.681 268.583 220.558 265.844C224.954 263.374 228.187 260.141 234.653 253.676L236.577 251.752C243.066 245.263 246.309 242.019 248.071 238.535C251.576 231.607 251.576 223.423 248.071 216.494C246.309 213.011 243.066 209.766 236.577 203.279L234.199 200.899C229.931 196.631 227.797 194.497 225.65 193.102C217.557 187.84 207.124 187.84 199.031 193.102C196.885 194.497 194.751 196.631 190.483 200.899C189.088 202.295 188.39 202.993 187.574 203.576C184.675 205.653 180.473 206.37 177.05 205.371C176.087 205.09 175.326 204.725 173.804 203.994C156.107 195.497 139.519 183.914 124.85 169.245Z" stroke="black" stroke-width="24.4167" stroke-linecap="round" stroke-linejoin="round"/>
</svg>
