<svg width="293" height="293" viewBox="0 0 293 293" fill="none" xmlns="http://www.w3.org/2000/svg">
<path d="M171.523 73.25C183.447 75.5765 194.405 81.4083 202.996 89.9991C211.587 98.5897 217.419 109.549 219.746 121.473M171.523 24.4166C196.296 27.1689 219.399 38.263 237.036 55.8776C254.673 73.4922 265.796 96.5802 268.579 121.351M124.85 169.245C110.181 154.576 98.5976 137.988 90.1007 120.291C89.3698 118.769 89.0044 118.008 88.7236 117.045C87.7259 113.622 88.4426 109.419 90.5181 106.521C91.1022 105.705 91.8 105.007 93.1955 103.612C97.4636 99.3437 99.5977 97.2097 100.993 95.0637C106.255 86.9709 106.255 76.5379 100.993 68.4451C99.5977 66.2991 97.4636 64.1651 93.1955 59.897L90.8165 57.5179C84.3285 51.0299 81.0844 47.7859 77.6004 46.0238C70.6714 42.5191 62.4886 42.5191 55.5597 46.0238C52.0757 47.7859 48.8315 51.0299 42.3435 57.5179L40.4191 59.4425C33.9532 65.9082 30.7204 69.1411 28.2512 73.5366C25.5114 78.4138 23.5415 85.989 23.5582 91.5832C23.5731 96.6245 24.5511 100.07 26.507 106.961C37.018 143.994 56.8501 178.939 86.0034 208.091C115.157 237.244 150.101 257.077 187.134 267.588C194.024 269.544 197.471 270.522 202.512 270.537C208.105 270.554 215.681 268.583 220.558 265.844C224.954 263.374 228.187 260.141 234.653 253.676L236.577 251.752C243.065 245.263 246.309 242.019 248.071 238.535C251.576 231.607 251.576 223.423 248.071 216.494C246.309 213.011 243.065 209.766 236.577 203.278L234.198 200.899C229.93 196.631 227.796 194.497 225.65 193.102C217.557 187.84 207.124 187.84 199.031 193.102C196.885 194.497 194.751 196.631 190.483 200.899C189.087 202.294 188.39 202.993 187.574 203.576C184.675 205.653 180.473 206.37 177.05 205.371C176.087 205.09 175.326 204.725 173.804 203.994C156.107 195.497 139.519 183.914 124.85 169.245Z" stroke="black" stroke-width="24.4167" stroke-linecap="round" stroke-linejoin="round"/>
</svg>
