<svg width="252" height="252" viewBox="0 0 252 252" fill="none" xmlns="http://www.w3.org/2000/svg">
<path d="M31.5 81.9C31.5 64.2583 31.5 55.4375 34.9333 48.6993C37.9533 42.7722 42.7722 37.9533 48.6993 34.9333C55.4375 31.5 64.2583 31.5 81.9 31.5H170.1C187.742 31.5 196.562 31.5 203.301 34.9333C209.228 37.9533 214.047 42.7722 217.066 48.6993C220.5 55.4375 220.5 64.2583 220.5 81.9V170.1C220.5 187.742 220.5 196.562 217.066 203.301C214.047 209.228 209.228 214.047 203.301 217.066C196.562 220.5 187.742 220.5 170.1 220.5H81.9C64.2583 220.5 55.4375 220.5 48.6993 217.066C42.7722 214.047 37.9533 209.228 34.9333 203.301C31.5 196.562 31.5 187.742 31.5 170.1V81.9Z" fill="#D9D9D9"/>
<path d="M31.5 81.9C31.5 64.2583 31.5 55.4375 34.9333 48.6993C37.9533 42.7722 42.7722 37.9533 48.6993 34.9333C55.4375 31.5 64.2583 31.5 81.9 31.5H170.1C187.742 31.5 196.562 31.5 203.301 34.9333C209.228 37.9533 214.047 42.7722 217.066 48.6993C220.5 55.4375 220.5 64.2583 220.5 81.9V170.1C220.5 187.742 220.5 196.562 217.066 203.301C214.047 209.228 209.228 214.047 203.301 217.066C196.562 220.5 187.742 220.5 170.1 220.5H81.9C64.2583 220.5 55.4375 220.5 48.6993 217.066C42.7722 214.047 37.9533 209.228 34.9333 203.301C31.5 196.562 31.5 187.742 31.5 170.1V81.9Z" fill="url(#paint0_linear_6_24)"/>
<defs>
<linearGradient id="paint0_linear_6_24" x1="31.5" y1="126" x2="220.5" y2="126" gradientUnits="userSpaceOnUse">
<stop stop-color="#A739FB"/>
<stop offset="1" stop-color="#8819DC"/>
</linearGradient>
</defs>
</svg>
