<svg width="294" height="294" viewBox="0 0 294 294" fill="none" xmlns="http://www.w3.org/2000/svg">
<path d="M223.242 98.1658C232.898 112.008 238.56 128.843 238.56 146.999C238.56 165.156 232.898 181.99 223.242 195.832M148.64 53.7968L109.992 92.4446C107.881 94.556 106.825 95.6118 105.593 96.3668C104.5 97.0362 103.31 97.5294 102.064 97.8285C100.659 98.1658 99.1659 98.1658 96.1799 98.1658H74.9708C68.1336 98.1658 64.7149 98.1658 62.1034 99.4964C59.8063 100.667 57.9386 102.534 56.7681 104.832C55.4375 107.443 55.4375 110.862 55.4375 117.699V176.299C55.4375 183.137 55.4375 186.555 56.7681 189.166C57.9386 191.464 59.8063 193.332 62.1034 194.501C64.7149 195.832 68.1336 195.832 74.9708 195.832H96.1799C99.1659 195.832 100.659 195.832 102.064 196.17C103.31 196.469 104.5 196.963 105.593 197.632C106.825 198.386 107.881 199.442 109.992 201.554L148.64 240.201C153.87 245.431 156.485 248.046 158.73 248.223C160.677 248.376 162.582 247.587 163.85 246.101C165.313 244.39 165.313 240.692 165.313 233.296V60.7029C165.313 53.3069 165.313 49.6089 163.85 47.8965C162.582 46.4108 160.677 45.6222 158.73 45.7756C156.485 45.9522 153.87 48.5671 148.64 53.7968Z" stroke="black" stroke-width="24.4167" stroke-linecap="round" stroke-linejoin="round"/>
</svg>
