<svg width="294" height="294" viewBox="0 0 294 294" fill="none" xmlns="http://www.w3.org/2000/svg">
<path d="M269.083 110.374L195.833 183.624M195.833 110.374L269.083 183.624M118.119 53.7968L79.4713 92.4446C77.3598 94.556 76.3041 95.6118 75.072 96.3668C73.9797 97.0362 72.7889 97.5294 71.5432 97.8285C70.1381 98.1658 68.6452 98.1658 65.6591 98.1658H44.4501C37.6128 98.1658 34.1941 98.1658 31.5826 99.4964C29.2855 100.667 27.4179 102.534 26.2473 104.832C24.9167 107.443 24.9167 110.862 24.9167 117.699V176.299C24.9167 183.137 24.9167 186.555 26.2473 189.166C27.4179 191.464 29.2855 193.332 31.5826 194.501C34.1941 195.832 37.6128 195.832 44.4501 195.832H65.6591C68.6452 195.832 70.1381 195.832 71.5432 196.17C72.7889 196.469 73.9797 196.963 75.072 197.632C76.3041 198.386 77.3598 199.442 79.4713 201.554L118.119 240.201C123.349 245.431 125.964 248.046 128.209 248.223C130.156 248.376 132.061 247.587 133.329 246.101C134.792 244.39 134.792 240.692 134.792 233.296V60.7029C134.792 53.3069 134.792 49.6089 133.329 47.8965C132.061 46.4108 130.156 45.6222 128.209 45.7756C125.964 45.9522 123.349 48.5671 118.119 53.7968Z" stroke="black" stroke-width="24.4167" stroke-linecap="round" stroke-linejoin="round"/>
</svg>
